<svg xmlns="http://www.w3.org/2000/svg" xmlns:xlink="http://www.w3.org/1999/xlink" viewBox="0,0,256,256" width="48px" height="48px" fill-rule="nonzero" fill="none"><g transform="translate(-25.6,-25.6) scale(1.2,1.2)"><g fill="none" fill-rule="nonzero" stroke="none" stroke-width="1" stroke-linecap="butt" stroke-linejoin="miter" stroke-miterlimit="10" stroke-dasharray="" stroke-dashoffset="0" font-family="none" font-weight="none" font-size="none" text-anchor="none" style="mix-blend-mode: normal"><g transform="scale(5.33333,5.33333)"><path d="M24,4c-11.04569,0 -20,8.95431 -20,20c0,11.04569 8.95431,20 20,20c11.04569,0 20,-8.95431 20,-20c0,-11.04569 -8.95431,-20 -20,-20z" fill="#d32f2f"></path><path d="M15.775,19.127l-1.39,-5.861l-3.231,3.2l2.686,5.034c0.517,-0.889 1.171,-1.687 1.935,-2.373zM19.65,16.949l1.325,-7.288c-0.172,0.064 -5.105,2.005 -5.105,2.005l0.683,6.829c0.922,-0.673 1.961,-1.206 3.097,-1.546zM22.75,16.5c0.447,0 0.898,0.042 1.349,0.103l4.771,-7.592l-5.87,-0.011l-2.444,7.725c0.706,-0.145 1.438,-0.225 2.194,-0.225zM28.307,18.073l8.693,-6.94l-6.192,-2.133l-5.887,7.741c1.205,0.257 2.368,0.718 3.386,1.332zM13.427,22.298l-2.822,-3.911l-1.605,3.562l3.647,2.888c0.148,-0.895 0.412,-1.746 0.78,-2.539zM13.86,31.404l-2.86,0.401l1.489,1.845l2.301,-0.947c-0.344,-0.413 -0.66,-0.843 -0.93,-1.299zM12.876,29.092l-3.467,-0.892l0.872,2.624l3.228,-0.076c-0.263,-0.533 -0.472,-1.087 -0.633,-1.656zM12.5,26.5c0,-0.176 0.017,-0.347 0.026,-0.52l-3.257,-2.324l-0.269,3.168l3.685,1.483c-0.115,-0.593 -0.185,-1.196 -0.185,-1.807z" fill="#fefdfd"></path><path d="M15.97,33.923l0.311,0.24l0.052,0.038c0.003,-0.005 0.006,-0.013 0.009,-0.018c0.199,-0.416 0.807,-1.682 4.033,-1.682c0.803,0 1.429,0.102 1.923,0.226l1.127,-0.269l-2.031,-4.266l-1.103,0.236l-0.665,-1.496l10.692,-7.196l-0.035,-0.047l-0.219,-0.253c-1.739,-1.783 -4.611,-2.935 -7.315,-2.935c-5.748,0 -10.25,4.393 -10.25,10c0.001,2.814 1.258,5.513 3.471,7.422z" fill="#fefdfd"></path><path d="M13,26.5c0,-5.327 4.283,-9.5 9.75,-9.5c2.591,0 5.333,1.118 6.958,2.784l0.197,0.23l0.832,-0.56c-1.698,-1.975 -4.836,-3.454 -7.987,-3.454c-6.075,0 -10.75,4.701 -10.75,10.5c0,3.288 1.585,6.221 4.064,8.146l0.04,0.034c0.092,-0.195 0.175,-0.369 0.238,-0.498c0.048,-0.099 0.12,-0.248 0.244,-0.415l-0.311,-0.24c-2.088,-1.802 -3.275,-4.336 -3.275,-7.027z" fill="#ff8d69"></path><path d="M17.25,31.375c-1.375,-1.125 -2.25,-2.875 -2.25,-4.875c0,-4.206 3.404,-8 7.75,-8c0.082,0 0.167,-0.003 0.25,0l-1,-0.5c-4.542,0.358 -8,3.98 -8,8.5c0,2.018 0.773,3.973 2.146,5.5z" fill="#ff8d69"></path><path d="M23.501,32.615c-0.442,-0.215 -1.479,-0.615 -3.126,-0.615c-2.444,0 -3.693,0.919 -4.092,1.283c-0.094,0.086 -0.165,0.189 -0.219,0.304l-2.064,4.413c0,0 2.469,-1 4.625,-1c3.333,0 4.875,1 4.875,1l1.462,-2.315z" fill="#e74743"></path><path d="M22,33.375c-0.375,-0.25 -1.026,-0.375 -1.86,-0.375c-2.094,0 -3.115,0.936 -3.281,1.282c-0.073,0.152 -0.242,0.479 -0.355,0.718c0,0 1.497,-1 2.997,-1.375c0.846,-0.212 1.624,-0.25 2.499,-0.25z" fill="#ff8d69"></path><path d="M19.627,26.931l0.665,1.496l13.098,-2.807l-1.702,-6.807z" fill="#fefdfd"></path><path d="M31.376,19.626l1.403,5.613l-12.195,2.613l-0.329,-0.741l11.121,-7.485M32,18l-13,8.75l1,2.25l14,-3l-2,-8z" fill="#ff8d69"></path><path d="M21.543,28.503l5.647,11.865c0.85,-0.354 2.772,-1.307 3.281,-2.843c-0.292,-0.718 -1.596,-3.758 -3.304,-5.276c-0.443,-0.393 -0.75,-0.619 -1.031,-0.825c-0.423,-0.311 -0.823,-0.605 -1.503,-1.333c-1.249,-1.34 -2.152,-1.557 -3.09,-1.588z" fill="#fefdfd"></path><path d="M22.39,29.119c0.533,0.155 1.127,0.508 1.879,1.313c0.711,0.762 1.129,1.069 1.572,1.394c0.281,0.206 0.571,0.42 0.995,0.796c1.513,1.345 2.712,3.991 3.098,4.91c-0.424,0.992 -1.604,1.751 -2.5,2.183l-5.044,-10.596M21.205,27.998c-0.151,0 -0.302,0.002 -0.455,0.002l6.188,13c0,0 3.438,-1.125 4.063,-3.5c0,0 -1.449,-3.802 -3.5,-5.625c-1.125,-1 -1.408,-0.955 -2.5,-2.125c-1.545,-1.654 -2.664,-1.752 -3.796,-1.752z" fill="#ff8d69"></path></g></g></g></svg>