<svg width="254" height="212" viewBox="0 0 254 212" fill="none" xmlns="http://www.w3.org/2000/svg">
<rect x="22" y="1" width="210" height="210" fill="#B03322" stroke="#E79105" stroke-width="2"/>
<path d="M230.262 134.743C242.297 112.582 245.527 97.3834 250.955 71.8502C256.168 47.3235 231.684 67.7539 192.266 59.3754C152.848 50.9969 138.325 24.5639 133.577 46.9008L133.577 46.9011C128.15 72.4341 125.385 85.4428 126.9 112.773C128.508 141.785 152.36 171.743 167.689 175.001C183.018 178.26 216.395 160.278 230.262 134.743Z" fill="#80BD24" stroke="#E79105" stroke-width="2"/>
<path d="M146.235 138.346C170.949 136.675 179.461 138.41 202.238 150.303C203.984 151.215 205.736 149.432 204.662 147.781C199.776 140.27 189.973 127.553 178.302 125.072C166.658 122.597 152.569 130.186 145.037 135.062C143.379 136.135 144.264 138.479 146.235 138.346Z" fill="#F7EB01" stroke="#E79105"/>
<path d="M223.747 86.7451C216.553 88.398 213.697 87.8177 207.552 83.2665C206.362 82.385 204.728 83.0272 204.782 84.5074C204.913 88.0594 206.338 93.4945 213.528 95.0228C220.699 96.5471 224.212 92.1883 225.782 88.9989C226.44 87.6639 225.197 86.4119 223.747 86.7451Z" fill="#F7EB01" stroke="#E79105"/>
<path d="M168.562 75.0152C161.368 76.6681 158.512 76.0877 152.367 71.5366C151.176 70.6551 149.543 71.2973 149.597 72.7775C149.728 76.3294 151.153 81.7646 158.343 83.2929C165.514 84.8172 169.027 80.4584 170.597 77.2689C171.255 75.9339 170.012 74.682 168.562 75.0152Z" fill="#F7EB01" stroke="#E79105"/>
<path d="M141.115 106.73C143.327 78.6563 139.72 61.6846 133.659 33.1725C127.838 5.78435 112.14 37.7466 68.1231 47.1026C24.1064 56.4587 -2.71444 36.0899 2.58735 61.0327L2.58744 61.0331C8.64785 89.5449 11.7355 104.071 25.6941 131.263C40.5118 160.129 78.4498 179.857 95.5674 176.218C112.685 172.58 138.567 139.076 141.115 106.73Z" fill="#F2BE02" stroke="#E79105" stroke-width="2"/>
<path d="M116.078 115.469C90.8933 128.84 81.5691 130.912 52.0624 129.024C50.0964 128.898 49.2233 131.248 50.8685 132.332C59.0835 137.742 75.3384 146.781 88.7065 143.939C102.047 141.103 113.202 126.29 118.519 117.996C119.585 116.333 117.823 114.542 116.078 115.469Z" fill="#F7EB01" stroke="#E79105"/>
<path d="M34.7066 87.5099C41.6023 82.2729 44.739 81.5707 53.4818 83.5541C54.9263 83.8818 56.1611 82.6327 55.5382 81.2888C53.8782 77.7072 49.9663 72.4311 41.6778 74.1929C33.4088 75.9505 31.9683 82.3354 31.9022 86.2849C31.8773 87.7728 33.5216 88.4098 34.7066 87.5099Z" fill="#F7EB01" stroke="#E79105"/>
<path d="M96.3299 74.4114C103.226 69.1745 106.362 68.4723 115.105 70.4557C116.55 70.7834 117.784 69.5343 117.162 68.1904C115.501 64.6087 111.59 59.3327 103.301 61.0944C95.0321 62.8521 93.5916 69.237 93.5255 73.1865C93.5006 74.6743 95.1449 75.3114 96.3299 74.4114Z" fill="#F7EB01" stroke="#E79105"/>
</svg>
